<?xml version="1.0" standalone="no"?>
<!DOCTYPE svg PUBLIC "-//W3C//DTD SVG 20010904//EN"
 "http://www.w3.org/TR/2001/REC-SVG-20010904/DTD/svg10.dtd">
<svg version="1.0" xmlns="http://www.w3.org/2000/svg"
 width="2000.000000pt" height="2000.000000pt" viewBox="0 0 2000.000000 2000.000000"
 preserveAspectRatio="xMidYMid meet">
<metadata>
Created by potrace 1.11, written by Peter Selinger 2001-2013
</metadata>
<g transform="translate(0.000000,2000.000000) scale(0.100000,-0.100000)"
fill="#000000" stroke="none">
<path d="M9599 19995 c-2 -1 -67 -6 -144 -9 -77 -3 -158 -8 -180 -10 -22 -3
-74 -7 -115 -10 -175 -14 -316 -29 -505 -55 -38 -6 -92 -13 -120 -16 -27 -4
-57 -8 -65 -10 -8 -2 -37 -7 -65 -10 -27 -4 -70 -11 -94 -16 -24 -5 -46 -7
-49 -4 -3 2 -11 0 -19 -6 -7 -6 -13 -9 -13 -6 0 3 -19 1 -42 -5 -24 -5 -79
-16 -123 -24 -44 -9 -84 -16 -90 -18 -5 -2 -28 -6 -50 -11 -22 -4 -107 -23
-190 -42 -82 -19 -158 -36 -168 -38 -10 -2 -27 -7 -37 -10 -10 -3 -27 -7 -37
-9 -27 -6 -264 -73 -378 -107 -362 -110 -847 -287 -1092 -400 -24 -10 -45 -19
-47 -19 -3 0 -53 -23 -113 -51 -180 -85 -211 -99 -222 -99 -5 0 -11 -3 -13 -7
-1 -5 -64 -38 -138 -75 -158 -80 -320 -166 -405 -215 -33 -20 -80 -47 -105
-61 -25 -14 -74 -42 -109 -64 -34 -21 -67 -38 -71 -38 -5 0 -10 -3 -12 -7 -1
-5 -32 -26 -68 -47 -70 -42 -442 -287 -450 -296 -3 -4 -34 -26 -70 -51 -35
-24 -71 -49 -80 -56 -8 -6 -53 -40 -100 -75 -185 -138 -377 -294 -555 -448
-60 -52 -123 -106 -139 -120 -173 -149 -641 -619 -791 -794 -27 -32 -60 -68
-71 -80 -27 -27 -258 -305 -313 -376 -24 -30 -88 -116 -144 -190 -56 -74 -104
-137 -107 -140 -3 -3 -14 -18 -26 -35 -11 -16 -37 -53 -57 -82 -73 -104 -289
-431 -322 -485 -5 -10 -32 -55 -60 -100 -27 -46 -54 -92 -61 -103 -6 -11 -25
-44 -42 -73 -18 -29 -32 -55 -32 -58 0 -2 -12 -23 -27 -47 -146 -231 -465
-910 -618 -1317 -26 -69 -59 -154 -72 -190 -83 -211 -221 -672 -298 -989 -84
-346 -167 -786 -199 -1056 -5 -39 -12 -90 -21 -150 -2 -16 -7 -61 -10 -100 -3
-38 -8 -83 -10 -100 -2 -16 -7 -64 -10 -105 -4 -41 -8 -97 -10 -125 -28 -341
-28 -1252 0 -1524 2 -20 7 -67 10 -106 11 -132 16 -180 20 -210 2 -16 6 -57
10 -90 4 -33 8 -71 10 -85 2 -14 9 -63 15 -110 17 -129 20 -153 25 -180 3 -14
7 -41 10 -60 3 -19 7 -46 10 -60 3 -14 7 -41 10 -60 11 -70 86 -437 106 -519
11 -46 18 -90 15 -98 -3 -8 -2 -12 2 -9 4 2 20 -46 35 -107 58 -242 176 -630
276 -909 203 -567 438 -1075 749 -1618 106 -185 132 -228 269 -438 40 -62 70
-118 67 -124 -4 -6 -3 -8 3 -5 6 4 30 -22 53 -58 127 -195 404 -562 623 -825
38 -45 145 -168 162 -186 11 -12 50 -54 86 -95 144 -161 190 -207 416 -429
197 -194 403 -383 553 -507 150 -124 220 -180 295 -238 1236 -957 2625 -1597
4145 -1910 138 -28 495 -89 589 -100 30 -4 61 -8 70 -10 9 -1 45 -6 81 -10 36
-4 72 -9 81 -10 9 -2 52 -6 95 -10 43 -3 86 -8 94 -10 8 -2 56 -7 105 -10 50
-4 108 -9 130 -11 287 -27 1336 -26 1530 1 17 2 64 7 105 10 71 5 113 10 205
20 22 2 67 7 100 10 33 4 85 10 115 15 30 5 80 12 110 15 105 12 416 65 612
106 492 100 1138 288 1544 449 42 17 83 29 91 26 8 -3 12 -2 9 3 -3 5 16 16
42 26 116 44 360 151 551 241 62 30 118 51 125 47 6 -3 8 -3 4 2 -4 4 73 48
170 97 187 96 391 209 611 341 128 76 578 372 651 427 19 15 62 46 95 71 178
131 475 367 590 469 22 19 69 60 104 90 168 144 630 598 786 771 44 49 89 99
100 112 11 12 58 67 105 122 47 55 87 102 90 105 8 7 223 277 287 360 81 106
229 314 323 454 100 150 270 415 270 421 0 3 15 28 33 57 57 90 220 384 315
570 49 97 94 174 98 170 4 -4 4 -2 1 4 -4 7 17 63 47 125 232 490 455 1103
600 1644 30 112 38 146 42 164 2 8 16 71 33 140 60 251 137 660 166 881 10 83
13 105 19 155 4 28 9 64 11 80 2 17 7 62 11 100 3 39 8 77 9 86 2 9 7 61 10
115 4 55 9 106 10 115 27 142 27 1273 0 1525 -2 21 -7 71 -10 109 -6 77 -23
250 -30 305 -9 73 -36 276 -40 300 -2 14 -11 70 -20 125 -28 172 -64 363 -106
553 -22 100 -37 187 -33 194 4 6 3 8 -3 5 -12 -7 -47 139 -37 156 4 6 3 9 -1
4 -5 -4 -28 61 -51 145 -82 298 -174 585 -244 763 -62 157 -93 243 -94 261 0
12 -3 20 -5 18 -3 -2 -29 53 -58 123 -70 168 -75 179 -148 340 -21 45 -37 84
-36 87 1 4 -3 12 -9 19 -5 6 -63 118 -128 247 -65 129 -132 258 -147 285 -16
28 -36 64 -45 80 -10 17 -31 54 -49 83 -17 29 -31 55 -31 57 0 3 -68 116 -130
215 -5 8 -27 44 -49 80 -50 83 -209 320 -286 428 -33 46 -67 94 -75 105 -42
62 -211 284 -293 387 -457 568 -936 1051 -1506 1519 -117 96 -477 370 -566
430 -94 64 -322 216 -341 228 -10 6 -80 49 -154 96 -142 88 -264 161 -365 217
-33 18 -80 44 -105 58 -39 21 -91 49 -340 177 -165 86 -581 269 -785 347 -44
17 -93 36 -110 43 -16 7 -70 28 -120 45 -49 17 -112 40 -140 51 -27 11 -59 21
-70 24 -11 2 -52 15 -92 29 -67 23 -390 122 -430 131 -10 2 -76 20 -148 39
-245 64 -557 135 -671 151 -21 4 -46 8 -55 11 -9 2 -32 7 -50 9 -19 3 -45 7
-59 10 -14 3 -36 7 -50 9 -43 7 -109 18 -133 21 -39 6 -181 26 -207 30 -14 2
-50 7 -80 10 -30 3 -66 8 -80 10 -14 2 -54 7 -90 10 -36 3 -83 8 -105 10 -85
8 -253 22 -375 31 -69 5 -987 14 -991 9z"/>
</g>
</svg>
